<?xml version="1.0" encoding="UTF-8"?>
<svg width="24" height="24" version="1.1" viewBox="0 0 24 24" xmlns="http://www.w3.org/2000/svg">
 <path d="M0 0h24v24H0z" fill="none"/>
 <path d="M12 17.27L18.18 21l-1.64-7.03L22 9.24l-7.19-.61L12 2 9.19 8.63 2 9.24l5.46 4.73L5.82 21z"/>
 <path d="m5.8588 20.924c0-0.01585 0.36332-1.5872 0.80738-3.4918l0.80738-3.463-0.066204-0.063c-0.036413-0.034655-1.251-1.0885-2.6991-2.342-1.4481-1.2534-2.6329-2.2877-2.6329-2.2983 0-0.010604 1.5596-0.15058 3.4659-0.31105 1.9062-0.16047 3.5104-0.29812 3.5647-0.30588l0.098823-0.014106 1.3972-3.299c0.76846-1.8144 1.3989-3.2967 1.401-3.2938 0.0021 0.00284 0.63018 1.4854 1.3957 3.2946s1.3941 3.2927 1.3968 3.2967c0.0063 0.00922 6.9469 0.5994 7.0516 0.59963 0.04271 8.47e-5 0.07765 0.012235 0.07765 0.026987 0 0.014751-1.1848 1.052-2.6329 2.3049-1.4481 1.253-2.6628 2.3066-2.6993 2.3413l-0.06634 0.06323 0.8088 3.4656c0.44484 1.9061 0.80501 3.477 0.80038 3.4909-0.0046 0.0139-1.3866-0.80665-3.0711-1.8235l-3.0627-1.8487-0.08546 0.05075c-0.047 0.02791-1.4026 0.84599-3.0125 1.818-3.2604 1.9685-3.0448 1.8409-3.0448 1.8014z" fill="#faca00" stroke-width=".028235"/>
</svg>
