<?xml version="1.0" encoding="UTF-8"?>
<svg width="24" height="24" version="1.1" viewBox="0 0 24 24" xmlns="http://www.w3.org/2000/svg">
 <path d="M0 0h24v24H0V0z" fill="none"/>
 <path d="M12 7.13l.97 2.29.47 1.11 1.2.1 2.47.21-1.88 1.63-.91.79.27 1.18.56 2.41-2.12-1.28-1.03-.64-1.03.62-2.12 1.28.56-2.41.27-1.18-.91-.79-1.88-1.63 2.47-.21 1.2-.1.47-1.11.97-2.27M12 2L9.19 8.63 2 9.24l5.46 4.73L5.82 21 12 17.27 18.18 21l-1.64-7.03L22 9.24l-7.19-.61L12 2z"/>
 <path d="m5.8602 20.894c0.00973-0.02745 0.37745-1.5939 0.81714-3.481 0.70106-3.0089 0.79238-3.4388 0.74207-3.4939-0.031554-0.034558-1.2503-1.096-2.7084-2.3588-1.5464-1.3394-2.6247-2.3005-2.5879-2.3069 0.034736-0.00596 1.6335-0.14423 3.5529-0.30727 1.9194-0.16304 3.5045-0.31114 3.5224-0.32911 0.017974-0.017974 0.64419-1.4759 1.3916-3.2398 0.7474-1.7639 1.3725-3.2306 1.3891-3.2594 0.01844-0.031996 0.57026 1.223 1.422 3.2342l1.3919 3.2865 0.2253 0.024052c0.12391 0.013228 1.7252 0.15056 3.5585 0.30519 1.8332 0.15463 3.3384 0.28637 3.3448 0.29276 0.0064 0.00639-1.1971 1.0578-2.6743 2.3366-1.4773 1.2787-2.6909 2.3551-2.6969 2.3919-6e-3 0.03684 0.34942 1.6102 0.78991 3.4964 0.44049 1.8862 0.79569 3.4346 0.78934 3.441-0.0064 0.0064-1.3771-0.81315-3.046-1.8211-1.6689-1.008-3.0545-1.8332-3.0791-1.8338-0.02456-6.06e-4 -1.4137 0.82546-3.0869 1.8357-1.6732 1.0102-3.0496 1.8368-3.0587 1.8368-0.00907 0-0.00852-0.02246 0.00121-0.04991zm9.3037-4.0729c-0.0096-0.02745-0.1992-0.83968-0.42137-1.805-0.33712-1.4647-0.39474-1.762-0.34834-1.7969 0.18213-0.13704 2.7063-2.3508 2.7063-2.3735 0-0.01518-0.81309-0.09582-1.8069-0.17918-0.99378-0.08337-1.8191-0.16347-1.8341-0.17801-0.01496-0.01454-0.33388-0.75122-0.70871-1.6371-0.76197-1.8008-0.73938-1.7517-0.77817-1.689-0.01524 0.024665-0.34009 0.77717-0.72187 1.6722-0.64627 1.5151-0.7019 1.6293-0.80637 1.6558-0.06172 0.01562-0.80402 0.08445-1.6496 0.15297-0.84553 0.06852-1.6261 0.1367-1.7347 0.15152l-0.19736 0.02694 1.3953 1.211c0.92763 0.8051 1.3917 1.2333 1.3845 1.2776-0.00595 0.03662-0.18988 0.838-0.40873 1.7808-0.21885 0.94284-0.39006 1.7221-0.38047 1.7317 0.0096 0.0096 0.7209-0.40731 1.5807-0.92645l1.5632-0.9439 0.6449 0.39782c1.1952 0.73724 2.4815 1.515 2.5104 1.5178 0.01578 0.0015 0.02086-0.01969 0.01127-0.04714z" fill="#faca00" stroke-width=".039931"/>
</svg>
